<svg width="32" height="32" viewBox="0 0 32 32" fill="none" xmlns="http://www.w3.org/2000/svg">
<path d="M8 30C8.55228 30 9 29.5523 9 29C9 28.4477 8.55228 28 8 28C7.44772 28 7 28.4477 7 29C7 29.5523 7.44772 30 8 30Z" stroke="white" stroke-width="2" stroke-linecap="round" stroke-linejoin="round"/>
<path d="M19 30C19.5523 30 20 29.5523 20 29C20 28.4477 19.5523 28 19 28C18.4477 28 18 28.4477 18 29C18 29.5523 18.4477 30 19 30Z" stroke="white" stroke-width="2" stroke-linecap="round" stroke-linejoin="round"/>
<path d="M2.0498 10.0498H4.0498L6.7098 22.4698C6.80738 22.9247 7.06048 23.3313 7.42552 23.6197C7.79056 23.908 8.24471 24.0602 8.7098 24.0498H18.4898C18.945 24.0491 19.3863 23.8931 19.7408 23.6076C20.0954 23.3222 20.3419 22.9243 20.4398 22.4798L22.0898 15.0498H5.1198" stroke="white" stroke-width="2" stroke-linecap="round" stroke-linejoin="round"/>
<path d="M12 10C12 4.47715 16.4772 0 22 0V0C27.5228 0 32 4.47715 32 10V10C32 15.5228 27.5228 20 22 20V20C16.4772 20 12 15.5228 12 10V10Z" fill="white"/>
<path d="M22.9482 5.27273L22.782 11.3835H21.2223L21.0518 5.27273H22.9482ZM22.0021 14.1108C21.7209 14.1108 21.4794 14.0114 21.2777 13.8125C21.076 13.6108 20.9766 13.3693 20.9794 13.0881C20.9766 12.8097 21.076 12.571 21.2777 12.3722C21.4794 12.1733 21.7209 12.0739 22.0021 12.0739C22.272 12.0739 22.5092 12.1733 22.7138 12.3722C22.9183 12.571 23.022 12.8097 23.0249 13.0881C23.022 13.2756 22.9723 13.4474 22.8757 13.6037C22.782 13.7571 22.6584 13.8807 22.505 13.9744C22.3516 14.0653 22.1839 14.1108 22.0021 14.1108Z" fill="#BB4D00"/>
</svg>
