<svg width="75" height="75" viewBox="0 0 75 75" fill="none" xmlns="http://www.w3.org/2000/svg">
<g filter="url(#filter0_dd_2400_9328)">
<mask id="path-1-inside-1_2400_9328" fill="white">
<path d="M15.8672 23.8016C15.8672 12.1169 25.3395 2.64453 37.0242 2.64453C48.7089 2.64453 58.1812 12.1169 58.1812 23.8016C58.1812 35.4863 48.7089 44.9586 37.0242 44.9586C25.3395 44.9586 15.8672 35.4863 15.8672 23.8016Z"/>
</mask>
<path d="M15.8672 23.8016C15.8672 12.1169 25.3395 2.64453 37.0242 2.64453C48.7089 2.64453 58.1812 12.1169 58.1812 23.8016C58.1812 35.4863 48.7089 44.9586 37.0242 44.9586C25.3395 44.9586 15.8672 35.4863 15.8672 23.8016Z" fill="url(#paint0_linear_2400_9328)" shape-rendering="crispEdges"/>
<path d="M15.8672 23.8016M58.1812 23.8016M58.1812 23.8016M15.8672 23.8016M37.0242 2.64453M58.1812 23.8016M37.0242 44.9586M15.8672 23.8016M37.0242 44.9586V39.6693C28.2607 39.6693 21.1564 32.5651 21.1564 23.8016H15.8672H10.5779C10.5779 38.4074 22.4183 50.2478 37.0242 50.2478V44.9586ZM58.1812 23.8016H52.892C52.892 32.5651 45.7877 39.6693 37.0242 39.6693V44.9586V50.2478C51.6301 50.2478 63.4705 38.4074 63.4705 23.8016H58.1812ZM37.0242 2.64453V7.93379C45.7877 7.93379 52.892 15.038 52.892 23.8016H58.1812H63.4705C63.4705 9.19568 51.6301 -2.64472 37.0242 -2.64472V2.64453ZM37.0242 2.64453V-2.64472C22.4183 -2.64472 10.5779 9.19568 10.5779 23.8016H15.8672H21.1564C21.1564 15.038 28.2607 7.93379 37.0242 7.93379V2.64453Z" fill="white" mask="url(#path-1-inside-1_2400_9328)"/>
<path d="M29.0898 23.8011C29.0898 19.4193 32.642 15.8672 37.0237 15.8672C41.4055 15.8672 44.9576 19.4193 44.9576 23.8011C44.9576 28.1828 41.4055 31.735 37.0237 31.735C32.642 31.735 29.0898 28.1828 29.0898 23.8011Z" fill="white"/>
</g>
<defs>
<filter id="filter0_dd_2400_9328" x="-0.000581503" y="-9.70364e-05" width="74.048" height="74.05" filterUnits="userSpaceOnUse" color-interpolation-filters="sRGB">
<feFlood flood-opacity="0" result="BackgroundImageFix"/>
<feColorMatrix in="SourceAlpha" type="matrix" values="0 0 0 0 0 0 0 0 0 0 0 0 0 0 0 0 0 0 127 0" result="hardAlpha"/>
<feMorphology radius="5.28926" operator="erode" in="SourceAlpha" result="effect1_dropShadow_2400_9328"/>
<feOffset dy="5.28926"/>
<feGaussianBlur stdDeviation="3.96694"/>
<feComposite in2="hardAlpha" operator="out"/>
<feColorMatrix type="matrix" values="0 0 0 0 0 0 0 0 0 0 0 0 0 0 0 0 0 0 0.1 0"/>
<feBlend mode="normal" in2="BackgroundImageFix" result="effect1_dropShadow_2400_9328"/>
<feColorMatrix in="SourceAlpha" type="matrix" values="0 0 0 0 0 0 0 0 0 0 0 0 0 0 0 0 0 0 127 0" result="hardAlpha"/>
<feMorphology radius="3.96694" operator="erode" in="SourceAlpha" result="effect2_dropShadow_2400_9328"/>
<feOffset dy="13.2231"/>
<feGaussianBlur stdDeviation="9.91736"/>
<feComposite in2="hardAlpha" operator="out"/>
<feColorMatrix type="matrix" values="0 0 0 0 0 0 0 0 0 0 0 0 0 0 0 0 0 0 0.1 0"/>
<feBlend mode="normal" in2="effect1_dropShadow_2400_9328" result="effect2_dropShadow_2400_9328"/>
<feBlend mode="normal" in="SourceGraphic" in2="effect2_dropShadow_2400_9328" result="shape"/>
</filter>
<linearGradient id="paint0_linear_2400_9328" x1="15.8672" y1="2.64453" x2="58.1812" y2="44.9586" gradientUnits="userSpaceOnUse">
<stop stop-color="#FE9A00"/>
<stop offset="1" stop-color="#BB4D00"/>
</linearGradient>
</defs>
</svg>
